<?xml version="1.0" encoding="UTF-8" standalone="no"?>
<!-- Created with Inkscape (http://www.inkscape.org/) -->

<svg
   width="326.36621"
   height="322.79166"
   viewBox="0 0 326.36623 322.79165"
   version="1.1"
   id="svg1"
   xml:space="preserve"
   inkscape:version="1.3 (0e150ed6c4, 2023-07-21)"
   sodipodi:docname="logo (copy).svg"
   xmlns:inkscape="http://www.inkscape.org/namespaces/inkscape"
   xmlns:sodipodi="http://sodipodi.sourceforge.net/DTD/sodipodi-0.dtd"
   xmlns="http://www.w3.org/2000/svg"
   xmlns:svg="http://www.w3.org/2000/svg"><sodipodi:namedview
     id="namedview1"
     pagecolor="#ffffff"
     bordercolor="#000000"
     borderopacity="0.25"
     inkscape:showpageshadow="2"
     inkscape:pageopacity="0.0"
     inkscape:pagecheckerboard="0"
     inkscape:deskcolor="#d1d1d1"
     inkscape:document-units="px"
     inkscape:zoom="1.1787109"
     inkscape:cx="174.7672"
     inkscape:cy="178.58493"
     inkscape:window-width="2560"
     inkscape:window-height="1371"
     inkscape:window-x="0"
     inkscape:window-y="0"
     inkscape:window-maximized="1"
     inkscape:current-layer="layer1" /><defs
     id="defs1" /><g
     inkscape:label="Layer 1"
     inkscape:groupmode="layer"
     id="layer1"
     transform="translate(44.734943,-94.604172)"><rect
       style="fill:#4d4d4d;stroke:none;stroke-width:25.669;stroke-linecap:round"
       id="rect1"
       width="326.36621"
       height="322.79166"
       x="-44.734943"
       y="94.604172"
       ry="36.806698" /><path
       d="m 33.995646,325.49232 v -17.75913 q 0,-6.5632 3.088552,-10.9064 3.088538,-4.3433 8.68654,-7.04579 10.423857,-5.01889 22.29546,-8.30047 11.871611,-3.2816 26.9283,-3.2816 15.056712,0 26.928252,3.2816 11.87167,3.28158 22.29546,8.30047 5.59799,2.70249 8.68656,7.04579 3.08859,4.3432 3.08859,10.9064 v 17.75913 z m 11.582056,-11.58204 h 98.833538 v -6.17709 q 0,-2.89552 -1.6408,-4.72934 -1.64072,-1.83386 -3.95719,-2.79894 -8.30045,-3.6677 -18.53124,-7.04579 -10.2308,-3.37812 -25.287512,-3.37812 -15.056689,0 -25.287505,3.37812 -10.230821,3.37809 -18.531295,7.04579 -2.316408,0.96508 -3.957197,2.79894 -1.640799,1.83382 -1.640799,4.72934 z m 49.416796,-47.29339 q -12.740273,0 -20.847715,-8.30047 -8.107452,-8.30047 -8.107452,-20.65472 h -1.930334 q -1.544272,0 -2.702474,-1.15813 -1.158216,-1.15823 -1.158216,-2.70248 0,-1.54435 1.158216,-2.70248 1.158202,-1.15824 2.702474,-1.15824 h 1.930334 q 0,-7.72143 3.860699,-13.89848 3.860688,-6.17707 10.037779,-10.03782 v 7.52841 q 0,1.15817 0.868653,2.02686 0.868649,0.86862 2.026869,0.86862 1.351239,0 2.123369,-0.86862 0.772142,-0.86869 0.772142,-2.02686 v -10.0378 q 1.544266,-0.38606 4.246741,-0.67562 2.702485,-0.28958 5.211915,-0.28958 2.50946,0 5.211932,0.28958 2.70248,0.28956 4.24679,0.67562 v 10.0378 q 0,1.15817 0.77215,2.02686 0.77213,0.86862 2.12336,0.86862 1.15825,0 2.02686,-0.86862 0.86863,-0.86869 0.86863,-2.02686 v -7.52841 q 6.17709,3.86075 9.84479,10.03782 3.66761,6.17705 3.66761,13.89848 h 1.93033 q 1.54428,0 2.70248,1.15824 1.15826,1.15813 1.15826,2.70248 0,1.54425 -1.15826,2.70248 -1.1582,1.15813 -2.70248,1.15813 h -1.93033 q 0,12.35425 -8.10745,20.65472 -8.10743,8.30047 -20.847672,8.30047 z m 0,-11.58205 q 8.107412,0 12.740242,-4.82587 4.63281,-4.82585 4.63281,-12.54727 H 77.621397 q 0,7.72142 4.632828,12.54727 4.632818,4.82587 12.740273,4.82587 z m 58.296372,23.93625 -0.3861,-5.59799 q -1.35124,-0.77215 -2.79901,-1.73731 -1.4477,-0.96518 -2.60596,-1.93034 l -5.01886,2.70248 -4.24676,-6.1771 5.0189,-3.66767 q -0.38611,-0.77213 -0.38611,-1.44774 v -2.89551 q 0,-0.67562 0.38611,-1.44775 l -5.0189,-3.66767 4.24676,-6.17711 5.01886,2.70249 2.70247,-1.93033 q 1.35126,-0.96517 2.7025,-1.73731 l 0.3861,-5.59802 h 7.72137 l 0.38608,5.59802 q 1.35123,0.77214 2.70248,1.73731 l 2.70248,1.93033 5.01888,-2.70249 4.24674,6.17711 -5.01894,3.66767 q 0.38607,0.77213 0.38607,1.44775 v 2.89551 q 0,0.67561 -0.38607,1.44774 l 5.01894,3.66767 -4.24674,6.1771 -5.01888,-2.70248 q -1.15828,0.96516 -2.60598,1.93034 -1.44775,0.96516 -2.79898,1.73731 l -0.38608,5.59799 z m 3.86066,-11.96812 q 3.08853,0 5.21195,-2.12338 2.12334,-2.12336 2.12334,-5.21192 0,-3.0886 -2.12334,-5.21194 -2.12342,-2.12339 -5.21195,-2.12339 -3.08851,0 -5.21189,2.12339 -2.12344,2.12334 -2.12344,5.21194 0,3.08856 2.12344,5.21192 2.12338,2.12338 5.21189,2.12338 z m 16.98699,-29.92036 -1.73731,-6.75621 q -1.93029,-0.77213 -3.95715,-2.12337 -2.02686,-1.35124 -3.3781,-2.89549 l -8.49355,3.08858 -3.86064,-6.7562 6.75621,-5.40496 q -0.38612,-0.96518 -0.67562,-2.12345 -0.28959,-1.15814 -0.28959,-2.31635 0,-1.15824 0.28959,-2.31641 0.2895,-1.15824 0.67562,-2.12344 l -6.75621,-5.40496 3.86064,-6.7562 8.49355,3.08857 q 1.35124,-1.54425 3.3781,-2.99197 2.02686,-1.44784 3.95715,-2.02688 l 1.73731,-6.7562 h 7.33534 l 1.73725,6.7562 q 1.93039,0.57904 3.95726,2.02688 2.02685,1.44772 3.37809,2.99197 l 8.4935,-3.08857 3.86072,6.7562 -6.75621,5.40496 q 0.38607,0.9652 0.67563,2.12344 0.28953,1.15817 0.28953,2.31641 0,1.15821 -0.28953,2.31635 -0.28956,1.15827 -0.67563,2.12345 l 6.75621,5.40496 -3.86072,6.7562 -8.4935,-3.08858 q -1.35124,1.54425 -3.37809,2.89549 -2.02687,1.35124 -3.95726,2.12337 l -1.73725,6.75621 z m 3.66764,-14.09145 q 4.82591,0 8.01097,-3.1851 3.18505,-3.18504 3.18505,-8.0109 0,-4.82589 -3.18505,-8.01092 -3.18506,-3.18513 -8.01097,-3.18513 -4.82582,0 -8.01087,3.18513 -3.18508,3.18503 -3.18508,8.01092 0,4.82586 3.18508,8.0109 3.18505,3.1851 8.01087,3.1851 z M 45.577702,313.91028 h 98.833538 z"
       id="path1"
       style="fill:#ffffff;stroke-width:0.0499999" /><path
       sodipodi:type="star"
       style="fill:none;stroke:#ffffff;stroke-width:20.9302;stroke-linecap:round;stroke-dasharray:none"
       id="path2"
       inkscape:flatsided="true"
       sodipodi:sides="6"
       sodipodi:cx="-400.09943"
       sodipodi:cy="-388.81195"
       sodipodi:r1="112.68067"
       sodipodi:r2="97.58432"
       sodipodi:arg1="0.52359878"
       sodipodi:arg2="1.0471976"
       inkscape:rounded="0"
       inkscape:randomized="0"
       d="m -302.5151,-332.47161 -97.58433,56.34033 -97.58432,-56.34034 0,-112.68067 97.58432,-56.34033 97.58433,56.34033 z"
       transform="matrix(1.2264128,0,0,1.2264128,609.13522,732.84395)" /></g></svg>
